<?xml version="1.0" encoding="UTF-8" standalone="no"?>
<svg
   width="519"
   height="432.5"
   viewBox="0 0 1080 900"
   version="1.1"
   id="svg144"
   sodipodi:docname="large-triangles3.svg"
   inkscape:version="1.2.2 (b0a8486541, 2022-12-01)"
   xmlns:inkscape="http://www.inkscape.org/namespaces/inkscape"
   xmlns:sodipodi="http://sodipodi.sourceforge.net/DTD/sodipodi-0.dtd"
   xmlns="http://www.w3.org/2000/svg"
   xmlns:svg="http://www.w3.org/2000/svg">
  <defs
     id="defs148" />
  <sodipodi:namedview
     id="namedview146"
     pagecolor="#ffffff"
     bordercolor="#000000"
     borderopacity="0.25"
     inkscape:showpageshadow="2"
     inkscape:pageopacity="0.0"
     inkscape:pagecheckerboard="0"
     inkscape:deskcolor="#d1d1d1"
     showgrid="false"
     inkscape:zoom="4.0601156"
     inkscape:cx="491.24217"
     inkscape:cy="404.17568"
     inkscape:window-width="1920"
     inkscape:window-height="1048"
     inkscape:window-x="0"
     inkscape:window-y="0"
     inkscape:window-maximized="1"
     inkscape:current-layer="svg144" />
  <rect
     fill="#1565C0"
     width="1080"
     height="900"
     id="rect2" />
  <g
     fill-opacity="0.03"
     id="g142"
     transform="matrix(1.0016576,0,0,1.0045667,0.14919174,-4.1002278)">
    <polygon
       fill="#444444"
       points="0,300 180,300 90,150 "
       id="polygon4" />
    <polygon
       points="180,0 0,0 90,150 "
       id="polygon6" />
    <polygon
       fill="#aaaaaa"
       points="360,0 180,0 270,150 "
       id="polygon8" />
    <polygon
       fill="#dddddd"
       points="360,300 540,300 450,150 "
       id="polygon10" />
    <polygon
       fill="#999999"
       points="540,0 360,0 450,150 "
       id="polygon12" />
    <polygon
       points="540,300 720,300 630,150 "
       id="polygon14" />
    <polygon
       fill="#dddddd"
       points="720,0 540,0 630,150 "
       id="polygon16" />
    <polygon
       fill="#444444"
       points="720,300 900,300 810,150 "
       id="polygon18" />
    <polygon
       fill="#ffffff"
       points="900,0 720,0 810,150 "
       id="polygon20" />
    <polygon
       fill="#dddddd"
       points="900,300 1080,300 990,150 "
       id="polygon22" />
    <polygon
       fill="#444444"
       points="1080,0 900,0 990,150 "
       id="polygon24" />
    <polygon
       fill="#dddddd"
       points="0,600 180,600 90,450 "
       id="polygon26" />
    <polygon
       points="180,300 0,300 90,450 "
       id="polygon28" />
    <polygon
       fill="#666666"
       points="180,600 360,600 270,450 "
       id="polygon30" />
    <polygon
       fill="#aaaaaa"
       points="360,300 180,300 270,450 "
       id="polygon32" />
    <polygon
       fill="#dddddd"
       points="360,600 540,600 450,450 "
       id="polygon34" />
    <polygon
       fill="#999999"
       points="540,300 360,300 450,450 "
       id="polygon36" />
    <polygon
       fill="#999999"
       points="540,600 720,600 630,450 "
       id="polygon38" />
    <polygon
       fill="#ffffff"
       points="720,300 540,300 630,450 "
       id="polygon40" />
    <polygon
       points="720,600 900,600 810,450 "
       id="polygon42" />
    <polygon
       fill="#dddddd"
       points="900,300 720,300 810,450 "
       id="polygon44" />
    <polygon
       fill="#aaaaaa"
       points="900,600 1080,600 990,450 "
       id="polygon46" />
    <polygon
       fill="#444444"
       points="1080,300 900,300 990,450 "
       id="polygon48" />
    <polygon
       fill="#222222"
       points="0,900 180,900 90,750 "
       id="polygon50" />
    <polygon
       points="180,900 360,900 270,750 "
       id="polygon52" />
    <polygon
       fill="#dddddd"
       points="360,600 180,600 270,750 "
       id="polygon54" />
    <polygon
       points="540,600 360,600 450,750 "
       id="polygon56" />
    <polygon
       points="540,900 720,900 630,750 "
       id="polygon58" />
    <polygon
       fill="#444444"
       points="720,600 540,600 630,750 "
       id="polygon60" />
    <polygon
       fill="#aaaaaa"
       points="720,900 900,900 810,750 "
       id="polygon62" />
    <polygon
       fill="#666666"
       points="900,600 720,600 810,750 "
       id="polygon64" />
    <polygon
       fill="#999999"
       points="900,900 1080,900 990,750 "
       id="polygon66" />
    <polygon
       fill="#999999"
       points="90,150 270,150 180,0 "
       id="polygon68" />
    <polygon
       fill="#444444"
       points="270,150 450,150 360,0 "
       id="polygon70" />
    <polygon
       fill="#ffffff"
       points="450,150 630,150 540,0 "
       id="polygon72" />
    <polygon
       points="810,150 990,150 900,0 "
       id="polygon74" />
    <polygon
       fill="#222222"
       points="-90,450 90,450 0,300 "
       id="polygon76" />
    <polygon
       fill="#ffffff"
       points="90,150 -90,150 0,300 "
       id="polygon78" />
    <polygon
       fill="#ffffff"
       points="90,450 270,450 180,300 "
       id="polygon80" />
    <polygon
       fill="#666666"
       points="270,150 90,150 180,300 "
       id="polygon82" />
    <polygon
       fill="#222222"
       points="270,450 450,450 360,300 "
       id="polygon84" />
    <polygon
       fill="#ffffff"
       points="450,150 270,150 360,300 "
       id="polygon86" />
    <polygon
       fill="#444444"
       points="450,450 630,450 540,300 "
       id="polygon88" />
    <polygon
       fill="#222222"
       points="630,150 450,150 540,300 "
       id="polygon90" />
    <polygon
       fill="#aaaaaa"
       points="630,450 810,450 720,300 "
       id="polygon92" />
    <polygon
       fill="#666666"
       points="810,150 630,150 720,300 "
       id="polygon94" />
    <polygon
       fill="#ffffff"
       points="810,450 990,450 900,300 "
       id="polygon96" />
    <polygon
       fill="#999999"
       points="990,150 810,150 900,300 "
       id="polygon98" />
    <polygon
       points="-90,750 90,750 0,600 "
       id="polygon100" />
    <polygon
       fill="#666666"
       points="90,450 -90,450 0,600 "
       id="polygon102" />
    <polygon
       fill="#aaaaaa"
       points="90,750 270,750 180,600 "
       id="polygon104" />
    <polygon
       fill="#444444"
       points="270,450 90,450 180,600 "
       id="polygon106" />
    <polygon
       fill="#444444"
       points="270,750 450,750 360,600 "
       id="polygon108" />
    <polygon
       fill="#999999"
       points="450,450 270,450 360,600 "
       id="polygon110" />
    <polygon
       fill="#666666"
       points="630,450 450,450 540,600 "
       id="polygon112" />
    <polygon
       fill="#222222"
       points="630,750 810,750 720,600 "
       id="polygon114" />
    <polygon
       fill="#ffffff"
       points="810,750 990,750 900,600 "
       id="polygon116" />
    <polygon
       fill="#222222"
       points="990,450 810,450 900,600 "
       id="polygon118" />
    <polygon
       fill="#dddddd"
       points="90,750 -90,750 0,900 "
       id="polygon120" />
    <polygon
       fill="#444444"
       points="270,750 90,750 180,900 "
       id="polygon122" />
    <polygon
       fill="#ffffff"
       points="450,750 270,750 360,900 "
       id="polygon124" />
    <polygon
       fill="#aaaaaa"
       points="630,750 450,750 540,900 "
       id="polygon126" />
    <polygon
       fill="#ffffff"
       points="810,750 630,750 720,900 "
       id="polygon128" />
    <polygon
       fill="#222222"
       points="990,750 810,750 900,900 "
       id="polygon130" />
    <polygon
       fill="#222222"
       points="990,450 1170,450 1080,300 "
       id="polygon132" />
    <polygon
       fill="#ffffff"
       points="1170,150 990,150 1080,300 "
       id="polygon134" />
    <polygon
       points="990,750 1170,750 1080,600 "
       id="polygon136" />
    <polygon
       fill="#666666"
       points="1170,450 990,450 1080,600 "
       id="polygon138" />
    <polygon
       fill="#dddddd"
       points="1170,750 990,750 1080,900 "
       id="polygon140" />
  </g>
</svg>
