<?xml version="1.0" encoding="UTF-8" standalone="no"?>
<svg
   width="100%"
   version="1.1"
   id="svg9376"
   sodipodi:docname="subtle-prism2.svg"
   inkscape:version="1.2.2 (b0a8486541, 2022-12-01)"
   xmlns:inkscape="http://www.inkscape.org/namespaces/inkscape"
   xmlns:sodipodi="http://sodipodi.sourceforge.net/DTD/sodipodi-0.dtd"
   xmlns:xlink="http://www.w3.org/1999/xlink"
   xmlns="http://www.w3.org/2000/svg"
   xmlns:svg="http://www.w3.org/2000/svg">
  <sodipodi:namedview
     id="namedview9378"
     pagecolor="#ffffff"
     bordercolor="#000000"
     borderopacity="0.25"
     inkscape:showpageshadow="2"
     inkscape:pageopacity="0.0"
     inkscape:pagecheckerboard="0"
     inkscape:deskcolor="#d1d1d1"
     showgrid="false"
     inkscape:zoom="3.0499873"
     inkscape:cx="165.41053"
     inkscape:cy="100.98403"
     inkscape:window-width="1920"
     inkscape:window-height="1048"
     inkscape:window-x="0"
     inkscape:window-y="0"
     inkscape:window-maximized="1"
     inkscape:current-layer="svg9376" />
  <rect
     fill="#1976D2"
     width="540"
     height="450"
     id="rect9222" />
  <defs
     id="defs9370">
    <pattern
       inkscape:collect="always"
       xlink:href="#b"
       id="pattern12564"
       patternTransform="translate(0.1146985,-0.22983686)" />
    <linearGradient
       id="a"
       gradientUnits="userSpaceOnUse"
       x1="0"
       x2="0"
       y1="0"
       y2="100%"
       gradientTransform="rotate(277,960,481)">
      <stop
         offset="0"
         stop-color="#1976D2"
         id="stop9224" />
      <stop
         offset="1"
         stop-color="#1565C0"
         id="stop9226" />
    </linearGradient>
    <pattern
       patternUnits="userSpaceOnUse"
       id="b"
       width="644"
       height="536.7"
       x="0"
       y="0"
       viewBox="0 0 1080 900">
      <g
         fill-opacity="0.03"
         id="g9367">
        <polygon
           fill="#444"
           points="90 150 0 300 180 300"
           id="polygon9229" />
        <polygon
           points="90 150 180 0 0 0"
           id="polygon9231" />
        <polygon
           fill="#AAA"
           points="270 150 360 0 180 0"
           id="polygon9233" />
        <polygon
           fill="#DDD"
           points="450 150 360 300 540 300"
           id="polygon9235" />
        <polygon
           fill="#999"
           points="450 150 540 0 360 0"
           id="polygon9237" />
        <polygon
           points="630 150 540 300 720 300"
           id="polygon9239" />
        <polygon
           fill="#DDD"
           points="630 150 720 0 540 0"
           id="polygon9241" />
        <polygon
           fill="#444"
           points="810 150 720 300 900 300"
           id="polygon9243" />
        <polygon
           fill="#FFF"
           points="810 150 900 0 720 0"
           id="polygon9245" />
        <polygon
           fill="#DDD"
           points="990 150 900 300 1080 300"
           id="polygon9247" />
        <polygon
           fill="#444"
           points="990 150 1080 0 900 0"
           id="polygon9249" />
        <polygon
           fill="#DDD"
           points="90 450 0 600 180 600"
           id="polygon9251" />
        <polygon
           points="90 450 180 300 0 300"
           id="polygon9253" />
        <polygon
           fill="#666"
           points="270 450 180 600 360 600"
           id="polygon9255" />
        <polygon
           fill="#AAA"
           points="270 450 360 300 180 300"
           id="polygon9257" />
        <polygon
           fill="#DDD"
           points="450 450 360 600 540 600"
           id="polygon9259" />
        <polygon
           fill="#999"
           points="450 450 540 300 360 300"
           id="polygon9261" />
        <polygon
           fill="#999"
           points="630 450 540 600 720 600"
           id="polygon9263" />
        <polygon
           fill="#FFF"
           points="630 450 720 300 540 300"
           id="polygon9265" />
        <polygon
           points="810 450 720 600 900 600"
           id="polygon9267" />
        <polygon
           fill="#DDD"
           points="810 450 900 300 720 300"
           id="polygon9269" />
        <polygon
           fill="#AAA"
           points="990 450 900 600 1080 600"
           id="polygon9271" />
        <polygon
           fill="#444"
           points="990 450 1080 300 900 300"
           id="polygon9273" />
        <polygon
           fill="#222"
           points="90 750 0 900 180 900"
           id="polygon9275" />
        <polygon
           points="270 750 180 900 360 900"
           id="polygon9277" />
        <polygon
           fill="#DDD"
           points="270 750 360 600 180 600"
           id="polygon9279" />
        <polygon
           points="450 750 540 600 360 600"
           id="polygon9281" />
        <polygon
           points="630 750 540 900 720 900"
           id="polygon9283" />
        <polygon
           fill="#444"
           points="630 750 720 600 540 600"
           id="polygon9285" />
        <polygon
           fill="#AAA"
           points="810 750 720 900 900 900"
           id="polygon9287" />
        <polygon
           fill="#666"
           points="810 750 900 600 720 600"
           id="polygon9289" />
        <polygon
           fill="#999"
           points="990 750 900 900 1080 900"
           id="polygon9291" />
        <polygon
           fill="#999"
           points="180 0 90 150 270 150"
           id="polygon9293" />
        <polygon
           fill="#444"
           points="360 0 270 150 450 150"
           id="polygon9295" />
        <polygon
           fill="#FFF"
           points="540 0 450 150 630 150"
           id="polygon9297" />
        <polygon
           points="900 0 810 150 990 150"
           id="polygon9299" />
        <polygon
           fill="#222"
           points="0 300 -90 450 90 450"
           id="polygon9301" />
        <polygon
           fill="#FFF"
           points="0 300 90 150 -90 150"
           id="polygon9303" />
        <polygon
           fill="#FFF"
           points="180 300 90 450 270 450"
           id="polygon9305" />
        <polygon
           fill="#666"
           points="180 300 270 150 90 150"
           id="polygon9307" />
        <polygon
           fill="#222"
           points="360 300 270 450 450 450"
           id="polygon9309" />
        <polygon
           fill="#FFF"
           points="360 300 450 150 270 150"
           id="polygon9311" />
        <polygon
           fill="#444"
           points="540 300 450 450 630 450"
           id="polygon9313" />
        <polygon
           fill="#222"
           points="540 300 630 150 450 150"
           id="polygon9315" />
        <polygon
           fill="#AAA"
           points="720 300 630 450 810 450"
           id="polygon9317" />
        <polygon
           fill="#666"
           points="720 300 810 150 630 150"
           id="polygon9319" />
        <polygon
           fill="#FFF"
           points="900 300 810 450 990 450"
           id="polygon9321" />
        <polygon
           fill="#999"
           points="900 300 990 150 810 150"
           id="polygon9323" />
        <polygon
           points="0 600 -90 750 90 750"
           id="polygon9325" />
        <polygon
           fill="#666"
           points="0 600 90 450 -90 450"
           id="polygon9327" />
        <polygon
           fill="#AAA"
           points="180 600 90 750 270 750"
           id="polygon9329" />
        <polygon
           fill="#444"
           points="180 600 270 450 90 450"
           id="polygon9331" />
        <polygon
           fill="#444"
           points="360 600 270 750 450 750"
           id="polygon9333" />
        <polygon
           fill="#999"
           points="360 600 450 450 270 450"
           id="polygon9335" />
        <polygon
           fill="#666"
           points="540 600 630 450 450 450"
           id="polygon9337" />
        <polygon
           fill="#222"
           points="720 600 630 750 810 750"
           id="polygon9339" />
        <polygon
           fill="#FFF"
           points="900 600 810 750 990 750"
           id="polygon9341" />
        <polygon
           fill="#222"
           points="900 600 990 450 810 450"
           id="polygon9343" />
        <polygon
           fill="#DDD"
           points="0 900 90 750 -90 750"
           id="polygon9345" />
        <polygon
           fill="#444"
           points="180 900 270 750 90 750"
           id="polygon9347" />
        <polygon
           fill="#FFF"
           points="360 900 450 750 270 750"
           id="polygon9349" />
        <polygon
           fill="#AAA"
           points="540 900 630 750 450 750"
           id="polygon9351" />
        <polygon
           fill="#FFF"
           points="720 900 810 750 630 750"
           id="polygon9353" />
        <polygon
           fill="#222"
           points="900 900 990 750 810 750"
           id="polygon9355" />
        <polygon
           fill="#222"
           points="1080 300 990 450 1170 450"
           id="polygon9357" />
        <polygon
           fill="#FFF"
           points="1080 300 1170 150 990 150"
           id="polygon9359" />
        <polygon
           points="1080 600 990 750 1170 750"
           id="polygon9361" />
        <polygon
           fill="#666"
           points="1080 600 1170 450 990 450"
           id="polygon9363" />
        <polygon
           fill="#DDD"
           points="1080 900 1170 750 990 750"
           id="polygon9365" />
      </g>
    </pattern>
  </defs>
  <rect
     x="0"
     y="0"
     fill="url(#a)"
     width="100%"
     height="100%"
     id="rect9372" />
  <rect
     x="0.1146985"
     y="-0.22983687"
     fill="url(#b)"
     width="100%"
     height="100%"
     id="rect9374"
     style="fill:url(#pattern12564)"
     transform="rotate(0.08775765)" />
</svg>
